<svg id="visual" viewBox="0 0 900 600" width="900" height="600" xmlns="http://www.w3.org/2000/svg" xmlns:xlink="http://www.w3.org/1999/xlink" version="1.1"><path d="M0 73L13.7 83C27.3 93 54.7 113 82 116C109.3 119 136.7 105 163.8 92C191 79 218 67 245.2 66C272.3 65 299.7 75 327 83C354.3 91 381.7 97 409 100C436.3 103 463.7 103 491 105C518.3 107 545.7 111 573 105C600.3 99 627.7 83 654.8 87C682 91 709 115 736.2 117C763.3 119 790.7 99 818 88C845.3 77 872.7 75 886.3 74L900 73L900 0L886.3 0C872.7 0 845.3 0 818 0C790.7 0 763.3 0 736.2 0C709 0 682 0 654.8 0C627.7 0 600.3 0 573 0C545.7 0 518.3 0 491 0C463.7 0 436.3 0 409 0C381.7 0 354.3 0 327 0C299.7 0 272.3 0 245.2 0C218 0 191 0 163.8 0C136.7 0 109.3 0 82 0C54.7 0 27.3 0 13.7 0L0 0Z" fill="#d2dfef"></path><path d="M0 187L13.7 198C27.3 209 54.7 231 82 225C109.3 219 136.7 185 163.8 171C191 157 218 163 245.2 160C272.3 157 299.7 145 327 143C354.3 141 381.7 149 409 156C436.3 163 463.7 169 491 170C518.3 171 545.7 167 573 163C600.3 159 627.7 155 654.8 168C682 181 709 211 736.2 216C763.3 221 790.7 201 818 194C845.3 187 872.7 193 886.3 196L900 199L900 71L886.3 72C872.7 73 845.3 75 818 86C790.7 97 763.3 117 736.2 115C709 113 682 89 654.8 85C627.7 81 600.3 97 573 103C545.7 109 518.3 105 491 103C463.7 101 436.3 101 409 98C381.7 95 354.3 89 327 81C299.7 73 272.3 63 245.2 64C218 65 191 77 163.8 90C136.7 103 109.3 117 82 114C54.7 111 27.3 91 13.7 81L0 71Z" fill="#c8d7ec"></path><path d="M0 277L13.7 284C27.3 291 54.7 305 82 301C109.3 297 136.7 275 163.8 257C191 239 218 225 245.2 218C272.3 211 299.7 211 327 219C354.3 227 381.7 243 409 250C436.3 257 463.7 255 491 256C518.3 257 545.7 261 573 256C600.3 251 627.7 237 654.8 243C682 249 709 275 736.2 285C763.3 295 790.7 289 818 283C845.3 277 872.7 271 886.3 268L900 265L900 197L886.3 194C872.7 191 845.3 185 818 192C790.7 199 763.3 219 736.2 214C709 209 682 179 654.8 166C627.7 153 600.3 157 573 161C545.7 165 518.3 169 491 168C463.7 167 436.3 161 409 154C381.7 147 354.3 139 327 141C299.7 143 272.3 155 245.2 158C218 161 191 155 163.8 169C136.7 183 109.3 217 82 223C54.7 229 27.3 207 13.7 196L0 185Z" fill="#bfcfe8"></path><path d="M0 421L13.7 426C27.3 431 54.7 441 82 442C109.3 443 136.7 435 163.8 435C191 435 218 443 245.2 440C272.3 437 299.7 423 327 429C354.3 435 381.7 461 409 459C436.3 457 463.7 427 491 430C518.3 433 545.7 469 573 482C600.3 495 627.7 485 654.8 477C682 469 709 463 736.2 462C763.3 461 790.7 465 818 449C845.3 433 872.7 397 886.3 379L900 361L900 263L886.3 266C872.7 269 845.3 275 818 281C790.7 287 763.3 293 736.2 283C709 273 682 247 654.8 241C627.7 235 600.3 249 573 254C545.7 259 518.3 255 491 254C463.7 253 436.3 255 409 248C381.7 241 354.3 225 327 217C299.7 209 272.3 209 245.2 216C218 223 191 237 163.8 255C136.7 273 109.3 295 82 299C54.7 303 27.3 289 13.7 282L0 275Z" fill="#b4c7e5"></path><path d="M0 601L13.7 601C27.3 601 54.7 601 82 601C109.3 601 136.7 601 163.8 601C191 601 218 601 245.2 601C272.3 601 299.7 601 327 601C354.3 601 381.7 601 409 601C436.3 601 463.7 601 491 601C518.3 601 545.7 601 573 601C600.3 601 627.7 601 654.8 601C682 601 709 601 736.2 601C763.3 601 790.7 601 818 601C845.3 601 872.7 601 886.3 601L900 601L900 359L886.3 377C872.7 395 845.3 431 818 447C790.7 463 763.3 459 736.2 460C709 461 682 467 654.8 475C627.7 483 600.3 493 573 480C545.7 467 518.3 431 491 428C463.7 425 436.3 455 409 457C381.7 459 354.3 433 327 427C299.7 421 272.3 435 245.2 438C218 441 191 433 163.8 433C136.7 433 109.3 441 82 440C54.7 439 27.3 429 13.7 424L0 419Z" fill="#aabfe1"></path></svg>